<svg width="146" height="146" viewBox="0 0 146 146" fill="none" xmlns="http://www.w3.org/2000/svg">
<g filter="url(#filter0_d_162_409)">
<rect x="9" y="9" width="128" height="128" rx="4" fill="#EFC0C9"/>
<rect x="8.5" y="8.5" width="129" height="129" rx="4.5" stroke="#F4AFBC"/>
</g>
<g clip-path="url(#clip0_162_409)">
<path d="M69.1444 32H82.6721V94.1197C75.7429 95.4329 70.6417 95.9495 65.1227 95.9495C48.6006 95.9323 40 88.5369 40 74.3335C40 60.6486 49.1229 51.7672 63.2598 51.7672C65.4535 51.7672 67.1249 51.94 69.1444 52.4583V32ZM69.6185 63.6529C68.0342 63.1345 66.7285 62.9617 65.0571 62.9617C58.2149 62.9617 54.2629 67.1432 54.2629 74.4712C54.2629 81.6057 58.0408 85.5453 64.97 85.5453C66.4673 85.5453 67.686 85.4607 69.6185 85.2015V63.6529Z" fill="#E08497"/>
<path d="M104.794 53.435V84.5372C104.794 95.2484 103.993 100.399 101.642 104.84C99.4487 109.11 96.5586 111.802 90.587 114.775L78.0343 108.849C84.006 106.069 86.896 103.611 88.7415 99.8619C90.674 96.0277 91.2834 91.587 91.2834 79.9064V53.435H104.794Z" fill="#E08497"/>
<path d="M89.92 32H103.448V45.7714H89.92V32Z" fill="#E08497"/>
</g>
<defs>
<filter id="filter0_d_162_409" x="0" y="0" width="146" height="146" filterUnits="userSpaceOnUse" color-interpolation-filters="sRGB">
<feFlood flood-opacity="0" result="BackgroundImageFix"/>
<feColorMatrix in="SourceAlpha" type="matrix" values="0 0 0 0 0 0 0 0 0 0 0 0 0 0 0 0 0 0 127 0" result="hardAlpha"/>
<feOffset/>
<feGaussianBlur stdDeviation="4"/>
<feComposite in2="hardAlpha" operator="out"/>
<feColorMatrix type="matrix" values="0 0 0 0 0.878431 0 0 0 0 0.517647 0 0 0 0 0.592157 0 0 0 0.15 0"/>
<feBlend mode="normal" in2="BackgroundImageFix" result="effect1_dropShadow_162_409"/>
<feBlend mode="normal" in="SourceGraphic" in2="effect1_dropShadow_162_409" result="shape"/>
</filter>
<clipPath id="clip0_162_409">
<rect width="65" height="82.931" fill="white" transform="translate(40 32)"/>
</clipPath>
</defs>
</svg>
