<svg width="146" height="146" viewBox="0 0 146 146" fill="none" xmlns="http://www.w3.org/2000/svg">
<g filter="url(#filter0_d_160_370)">
<rect x="9" y="9" width="128" height="128" rx="4" fill="#EFC0C9"/>
<rect x="8.5" y="8.5" width="129" height="129" rx="4.5" stroke="#F4AFBC"/>
</g>
<path d="M46.9289 102.933L41 36.4286H106.119L100.183 102.938L73.5435 110.322L46.9289 102.933Z" fill="#E08497"/>
<path d="M73.5593 41.8646V104.674L95.1003 98.7025L100.175 41.8646H73.5593Z" fill="#E390A1"/>
<path d="M53.1306 50.0219L55.3292 74.6879H83.6002L82.6514 85.2675L73.5488 87.7285L64.4634 85.2711L63.856 78.478H55.6686L56.8393 91.5731L73.5469 96.2134L90.2755 91.5731L92.5182 66.5322H62.7893L62.0429 58.1793H93.2325H93.2574L93.9881 50.0219H53.1306Z" fill="white"/>
<path d="M73.5593 50.0219H53.1306L55.3292 74.6879H73.5593V66.5322H62.7893L62.0429 58.1793H73.5593V50.0219Z" fill="#EBEBEB"/>
<path d="M73.5593 87.725L73.5488 87.7285L64.4634 85.2711L63.856 78.478H55.6686L56.8393 91.5731L73.5469 96.2134L73.5593 96.2099V87.725Z" fill="#EBEBEB"/>
<defs>
<filter id="filter0_d_160_370" x="0" y="0" width="146" height="146" filterUnits="userSpaceOnUse" color-interpolation-filters="sRGB">
<feFlood flood-opacity="0" result="BackgroundImageFix"/>
<feColorMatrix in="SourceAlpha" type="matrix" values="0 0 0 0 0 0 0 0 0 0 0 0 0 0 0 0 0 0 127 0" result="hardAlpha"/>
<feOffset/>
<feGaussianBlur stdDeviation="4"/>
<feComposite in2="hardAlpha" operator="out"/>
<feColorMatrix type="matrix" values="0 0 0 0 0.878431 0 0 0 0 0.517647 0 0 0 0 0.592157 0 0 0 0.15 0"/>
<feBlend mode="normal" in2="BackgroundImageFix" result="effect1_dropShadow_160_370"/>
<feBlend mode="normal" in="SourceGraphic" in2="effect1_dropShadow_160_370" result="shape"/>
</filter>
</defs>
</svg>
