<svg width="146" height="146" viewBox="0 0 146 146" fill="none" xmlns="http://www.w3.org/2000/svg">
<g filter="url(#filter0_d_160_380)">
<path d="M9 13C9 10.7909 10.7909 9 13 9H133C135.209 9 137 10.7909 137 13V133C137 135.209 135.209 137 133 137H13C10.7909 137 9 135.209 9 133V13Z" fill="#EFC0C9"/>
<path d="M42.6559 115.966L52.4514 110.038C54.3411 113.389 56.0601 116.224 60.1836 116.224C64.1361 116.224 66.6281 114.677 66.6281 108.663V67.7644H78.6568V108.834C78.6568 121.292 71.3539 126.963 60.6992 126.963C51.0767 126.963 45.491 121.979 42.6557 115.965" fill="#E08497"/>
<path d="M85.1905 114.677L94.9847 109.006C97.563 113.217 100.914 116.31 106.842 116.31C111.826 116.31 115.005 113.818 115.005 110.381C115.005 106.257 111.74 104.796 106.241 102.391L103.234 101.101C94.5556 97.4074 88.7987 92.7677 88.7987 82.9724C88.7987 73.9507 95.6723 67.0767 106.413 67.0767C114.06 67.0767 119.559 69.7405 123.511 76.7002L114.145 82.7144C112.083 79.0201 109.85 77.5596 106.413 77.5596C102.89 77.5596 100.656 79.7936 100.656 82.7144C100.656 86.3232 102.89 87.7842 108.045 90.0183L111.052 91.307C121.277 95.6893 127.034 100.157 127.034 110.209C127.034 121.036 118.528 126.964 107.1 126.964C95.9305 126.964 88.7127 121.637 85.1905 114.677Z" fill="#E08497"/>
<rect x="8.5" y="8.5" width="129" height="129" rx="4.5" stroke="#F4AFBC" shape-rendering="crispEdges"/>
</g>
<defs>
<filter id="filter0_d_160_380" x="0" y="0" width="146" height="146" filterUnits="userSpaceOnUse" color-interpolation-filters="sRGB">
<feFlood flood-opacity="0" result="BackgroundImageFix"/>
<feColorMatrix in="SourceAlpha" type="matrix" values="0 0 0 0 0 0 0 0 0 0 0 0 0 0 0 0 0 0 127 0" result="hardAlpha"/>
<feOffset/>
<feGaussianBlur stdDeviation="4"/>
<feComposite in2="hardAlpha" operator="out"/>
<feColorMatrix type="matrix" values="0 0 0 0 0.878431 0 0 0 0 0.517647 0 0 0 0 0.592157 0 0 0 0.15 0"/>
<feBlend mode="normal" in2="BackgroundImageFix" result="effect1_dropShadow_160_380"/>
<feBlend mode="normal" in="SourceGraphic" in2="effect1_dropShadow_160_380" result="shape"/>
</filter>
</defs>
</svg>
