<svg width="146" height="146" viewBox="0 0 146 146" fill="none" xmlns="http://www.w3.org/2000/svg">
<g filter="url(#filter0_d_211_11)">
<rect x="9" y="9" width="128" height="128" rx="4" fill="#EFC0C9"/>
<rect x="8.5" y="8.5" width="129" height="129" rx="4.5" stroke="#F4AFBC"/>
</g>
<g clip-path="url(#clip0_211_11)">
<path d="M111.532 51.0665C111.561 51.173 111.576 51.2828 111.576 51.3931V68.5349C111.576 68.9827 111.336 69.3964 110.948 69.6192L96.5602 77.9026V94.3211C96.5602 94.7679 96.3228 95.1804 95.9353 95.4054L65.9027 112.694C65.834 112.733 65.759 112.758 65.684 112.785C65.6559 112.794 65.6293 112.811 65.5996 112.819C65.3897 112.874 65.169 112.874 64.9591 112.819C64.9247 112.81 64.8934 112.791 64.8606 112.778C64.7919 112.753 64.72 112.732 64.6544 112.694L34.6281 95.4054C34.2398 95.1823 34 94.7689 34 94.3211V42.8956C34 42.7831 34.0156 42.6737 34.0437 42.5675C34.0531 42.5316 34.075 42.4987 34.0875 42.4628C34.1109 42.3972 34.1328 42.33 34.1672 42.2691C34.1906 42.2285 34.225 42.1957 34.2531 42.1582C34.289 42.1082 34.3218 42.0566 34.364 42.0129C34.4 41.9769 34.4468 41.9504 34.4874 41.9191C34.5328 41.8816 34.5734 41.841 34.6249 41.8113H34.6265L49.6404 33.167C50.0273 32.9443 50.5034 32.9443 50.8903 33.167L65.9043 41.8113H65.9074C65.9574 41.8426 65.9996 41.8816 66.0449 41.9176C66.0855 41.9488 66.1308 41.9769 66.1667 42.0113C66.2105 42.0566 66.2417 42.1082 66.2792 42.1582C66.3058 42.1957 66.3417 42.2285 66.3636 42.2691C66.3995 42.3316 66.4198 42.3972 66.4448 42.4628C66.4573 42.4987 66.4792 42.5316 66.4886 42.569C66.5173 42.6755 66.5321 42.7853 66.5323 42.8956V75.0154L79.0434 67.8116V51.3915C79.0434 51.2821 79.0591 51.1712 79.0872 51.0665C79.0981 51.029 79.1184 50.9962 79.1309 50.9603C79.1559 50.8947 79.1778 50.8275 79.2122 50.7666C79.2356 50.726 79.27 50.6931 79.2965 50.6557C79.334 50.6057 79.3653 50.5541 79.409 50.5104C79.445 50.4744 79.4903 50.4479 79.5309 50.4166C79.5778 50.3791 79.6184 50.3385 79.6684 50.3088H79.6699L94.6855 41.6645C95.0722 41.4415 95.5485 41.4415 95.9353 41.6645L110.949 50.3088C111.002 50.3401 111.043 50.3791 111.09 50.4151C111.129 50.4463 111.174 50.4744 111.21 50.5088C111.254 50.5541 111.285 50.6057 111.323 50.6557C111.351 50.6931 111.385 50.726 111.407 50.7666C111.443 50.8275 111.463 50.8947 111.488 50.9603C111.502 50.9962 111.523 51.029 111.532 51.0665ZM109.073 67.8116V53.5569L103.819 56.5816L96.5602 60.7608V75.0154L109.074 67.8116H109.073ZM94.059 93.5978V79.3337L86.9191 83.4114L66.5308 95.0476V109.446L94.059 93.5978ZM36.5028 45.0594V93.5978L64.0279 109.444V95.0492L49.6483 86.911L49.6436 86.9079L49.6373 86.9048C49.5889 86.8766 49.5483 86.836 49.503 86.8016C49.4639 86.7704 49.4186 86.7454 49.3842 86.711L49.3811 86.7063C49.3405 86.6673 49.3124 86.6188 49.278 86.5751C49.2467 86.5329 49.2092 86.497 49.1843 86.4532L49.1827 86.4486C49.1546 86.4017 49.1374 86.3454 49.1171 86.2923C49.0968 86.2455 49.0702 86.2017 49.0577 86.1517V86.1501C49.0421 86.0908 49.039 86.0283 49.0327 85.9674C49.0265 85.9205 49.014 85.8736 49.014 85.8267V85.8236V52.2633L41.757 48.0825L36.5028 45.061V45.0594ZM50.2669 35.6948L37.7574 42.8956L50.2638 50.0963L62.7718 42.894L50.2638 35.6948H50.2669ZM56.7725 80.6336L64.0295 76.4559V45.0594L58.7754 48.0841L51.5168 52.2633V83.6598L56.7725 80.6336ZM95.3104 44.1923L82.8024 51.3931L95.3104 58.5938L107.817 51.3915L95.3104 44.1923ZM94.059 60.7608L86.8004 56.5816L81.5463 53.5569V67.8116L88.8033 71.9892L94.059 75.0154V60.7608ZM65.2778 92.8838L83.6242 82.4099L92.795 77.1761L80.2964 69.9801L65.9058 78.2651L52.7901 85.8158L65.2778 92.8838Z" fill="#E08497"/>
</g>
<defs>
<filter id="filter0_d_211_11" x="0" y="0" width="146" height="146" filterUnits="userSpaceOnUse" color-interpolation-filters="sRGB">
<feFlood flood-opacity="0" result="BackgroundImageFix"/>
<feColorMatrix in="SourceAlpha" type="matrix" values="0 0 0 0 0 0 0 0 0 0 0 0 0 0 0 0 0 0 127 0" result="hardAlpha"/>
<feOffset/>
<feGaussianBlur stdDeviation="4"/>
<feComposite in2="hardAlpha" operator="out"/>
<feColorMatrix type="matrix" values="0 0 0 0 0.878431 0 0 0 0 0.517647 0 0 0 0 0.592157 0 0 0 0.15 0"/>
<feBlend mode="normal" in2="BackgroundImageFix" result="effect1_dropShadow_211_11"/>
<feBlend mode="normal" in="SourceGraphic" in2="effect1_dropShadow_211_11" result="shape"/>
</filter>
<clipPath id="clip0_211_11">
<rect width="77.5758" height="80" fill="white" transform="translate(34 33)"/>
</clipPath>
</defs>
</svg>
