<svg width="130" height="130" viewBox="0 0 130 130" fill="none" xmlns="http://www.w3.org/2000/svg">
<rect x="0.5" y="0.5" width="129" height="129" rx="4.5" fill="#EFC0C9" stroke="#F4AFBC"/>
<g clip-path="url(#clip0_211_11)">
<path d="M103.532 43.0665C103.561 43.173 103.576 43.2828 103.576 43.3931V60.5349C103.576 60.9827 103.336 61.3964 102.948 61.6192L88.5602 69.9026V86.3211C88.5602 86.7679 88.3228 87.1804 87.9353 87.4054L57.9027 104.694C57.834 104.733 57.759 104.758 57.684 104.785C57.6559 104.794 57.6293 104.811 57.5996 104.819C57.3897 104.874 57.169 104.874 56.9591 104.819C56.9247 104.81 56.8934 104.791 56.8606 104.778C56.7919 104.753 56.72 104.732 56.6544 104.694L26.6281 87.4054C26.2398 87.1823 26 86.7689 26 86.3211V34.8956C26 34.7831 26.0156 34.6737 26.0437 34.5675C26.0531 34.5316 26.075 34.4987 26.0875 34.4628C26.1109 34.3972 26.1328 34.33 26.1672 34.2691C26.1906 34.2285 26.225 34.1957 26.2531 34.1582C26.289 34.1082 26.3218 34.0566 26.364 34.0129C26.4 33.9769 26.4468 33.9504 26.4874 33.9191C26.5328 33.8816 26.5734 33.841 26.6249 33.8113H26.6265L41.6404 25.167C42.0273 24.9443 42.5034 24.9443 42.8903 25.167L57.9043 33.8113H57.9074C57.9574 33.8426 57.9996 33.8816 58.0449 33.9176C58.0855 33.9488 58.1308 33.9769 58.1667 34.0113C58.2105 34.0566 58.2417 34.1082 58.2792 34.1582C58.3058 34.1957 58.3417 34.2285 58.3636 34.2691C58.3995 34.3316 58.4198 34.3972 58.4448 34.4628C58.4573 34.4987 58.4792 34.5316 58.4886 34.569C58.5173 34.6755 58.5321 34.7853 58.5323 34.8956V67.0154L71.0434 59.8116V43.3915C71.0434 43.2821 71.0591 43.1712 71.0872 43.0665C71.0981 43.029 71.1184 42.9962 71.1309 42.9603C71.1559 42.8947 71.1778 42.8275 71.2122 42.7666C71.2356 42.726 71.27 42.6931 71.2965 42.6557C71.334 42.6057 71.3653 42.5541 71.409 42.5104C71.445 42.4744 71.4903 42.4479 71.5309 42.4166C71.5778 42.3791 71.6184 42.3385 71.6684 42.3088H71.6699L86.6855 33.6645C87.0722 33.4415 87.5485 33.4415 87.9353 33.6645L102.949 42.3088C103.002 42.3401 103.043 42.3791 103.09 42.4151C103.129 42.4463 103.174 42.4744 103.21 42.5088C103.254 42.5541 103.285 42.6057 103.323 42.6557C103.351 42.6931 103.385 42.726 103.407 42.7666C103.443 42.8275 103.463 42.8947 103.488 42.9603C103.502 42.9962 103.523 43.029 103.532 43.0665ZM101.073 59.8116V45.5569L95.8188 48.5816L88.5602 52.7608V67.0154L101.074 59.8116H101.073ZM86.059 85.5978V71.3337L78.9191 75.4114L58.5308 87.0476V101.446L86.059 85.5978ZM28.5028 37.0594V85.5978L56.0279 101.444V87.0492L41.6483 78.911L41.6436 78.9079L41.6373 78.9048C41.5889 78.8766 41.5483 78.836 41.503 78.8016C41.4639 78.7704 41.4186 78.7454 41.3842 78.711L41.3811 78.7063C41.3405 78.6673 41.3124 78.6188 41.278 78.5751C41.2467 78.5329 41.2092 78.497 41.1843 78.4532L41.1827 78.4486C41.1546 78.4017 41.1374 78.3454 41.1171 78.2923C41.0968 78.2455 41.0702 78.2017 41.0577 78.1517V78.1501C41.0421 78.0908 41.039 78.0283 41.0327 77.9674C41.0265 77.9205 41.014 77.8736 41.014 77.8267V77.8236V44.2633L33.757 40.0825L28.5028 37.061V37.0594ZM42.2669 27.6948L29.7574 34.8956L42.2638 42.0963L54.7718 34.894L42.2638 27.6948H42.2669ZM48.7725 72.6336L56.0295 68.4559V37.0594L50.7754 40.0841L43.5168 44.2633V75.6598L48.7725 72.6336ZM87.3104 36.1923L74.8024 43.3931L87.3104 50.5938L99.8168 43.3915L87.3104 36.1923ZM86.059 52.7608L78.8004 48.5816L73.5463 45.5569V59.8116L80.8033 63.9892L86.059 67.0154V52.7608ZM57.2778 84.8838L75.6242 74.4099L84.795 69.1761L72.2964 61.9801L57.9058 70.2651L44.7901 77.8158L57.2778 84.8838Z" fill="#E08497"/>
</g>
<defs>
<clipPath id="clip0_211_11">
<rect width="77.5758" height="80" fill="white" transform="translate(26 25)"/>
</clipPath>
</defs>
</svg>
