<svg width="146" height="146" viewBox="0 0 146 146" fill="none" xmlns="http://www.w3.org/2000/svg">
<g filter="url(#filter0_d_222_11)">
<rect x="9" y="9" width="128" height="128" rx="4" fill="#EFC0C9"/>
<rect x="8.5" y="8.5" width="129" height="129" rx="4.5" stroke="#F4AFBC"/>
</g>
<path d="M46.8197 108.696C51.0389 109.2 55.7795 111.933 59.7467 112.416C63.7353 112.919 64.9695 109.699 64.9695 109.699C64.9695 109.699 69.4579 108.696 74.1766 108.58C78.8999 108.448 83.3711 109.563 83.3711 109.563C83.3711 109.563 84.2381 111.549 85.8566 112.416C87.4752 113.299 90.9599 113.419 93.1933 111.066C95.431 108.696 101.401 105.711 104.754 103.844C108.127 101.974 107.508 99.1214 105.39 98.2543C103.272 97.3875 101.538 96.0209 101.67 93.3987C101.786 90.7981 99.8 89.0642 99.8 89.0642C99.8 89.0642 101.538 83.3418 99.9196 78.6015C98.3011 73.8828 92.9629 66.294 88.8591 60.5886C84.7552 54.8662 88.2396 48.2597 84.5032 39.8168C80.7664 31.3611 71.0767 31.861 65.8539 35.465C60.631 39.0693 62.2323 48.0075 62.4842 52.2482C62.7361 56.4674 62.5995 59.4866 62.117 60.5715C61.6344 61.6733 58.265 65.6748 56.0273 69.0272C53.7939 72.3966 52.1751 79.3533 50.5396 82.2231C48.9381 85.0759 50.057 87.6765 50.057 87.6765C50.057 87.6765 48.9383 88.0608 48.0543 89.9315C47.1872 91.7807 45.4534 92.6645 42.3316 93.2669C39.2311 93.9031 39.2311 95.9018 39.9786 98.1395C40.7301 100.373 39.9786 101.624 39.1115 104.477C38.2447 107.329 42.5835 108.196 46.8197 108.696ZM90.678 95.6834C92.8943 96.6528 96.0801 95.3032 97.0495 94.3338C98.0149 93.3687 98.698 91.9338 98.698 91.9338C98.698 91.9338 99.6674 92.4164 99.5691 93.9493C99.4665 95.5038 100.235 97.7202 101.687 98.489C103.139 99.2534 105.356 100.321 104.207 101.389C103.037 102.456 96.5627 105.061 94.6282 107.094C92.7107 109.114 90.1911 110.767 88.6579 110.28C87.1079 109.797 85.754 107.679 86.4204 104.579C87.1079 101.491 87.6888 98.1045 87.5905 96.17C87.4881 94.2355 87.1079 91.6306 87.5905 91.2461C88.073 90.8659 88.8418 91.0495 88.8418 91.0495C88.8418 91.0495 88.457 94.7186 90.678 95.6834ZM76.295 43.4211C78.4301 43.4211 80.1512 45.5392 80.1512 48.1441C80.1512 49.9933 79.2842 51.5948 78.0159 52.3635C77.6956 52.2312 77.3624 52.0816 76.9952 51.9277C77.7639 51.5478 78.2975 50.5784 78.2975 49.4594C78.2975 47.9948 77.3967 46.7905 76.2648 46.7905C75.1631 46.7905 74.2447 47.9945 74.2447 49.4594C74.2447 49.9935 74.3773 50.5271 74.5949 50.9456C73.9288 50.6764 73.3266 50.4461 72.8441 50.2625C72.5921 49.626 72.4426 48.9086 72.4426 48.1444C72.4428 45.5394 74.1594 43.4211 76.295 43.4211ZM71.0079 51.5608C72.0586 51.7444 74.9452 52.9957 76.0131 53.3799C77.0808 53.7472 78.2635 54.4303 78.1482 55.1138C78.0159 55.8183 77.465 55.8183 76.0131 56.7023C74.5782 57.5694 71.4437 59.5039 70.44 59.6362C69.4406 59.7685 68.8728 59.2047 67.8048 58.5172C66.7372 57.8168 64.7346 56.1812 65.2382 55.3144C65.2382 55.3144 66.8055 54.1144 67.4889 53.4995C68.1723 52.8631 69.9402 51.3642 71.0079 51.5608ZM66.4042 44.1728C68.0867 44.1728 69.4577 46.1756 69.4577 48.6439C69.4577 49.0924 69.4064 49.5107 69.3253 49.9293C68.9068 50.0616 68.4885 50.2795 68.0867 50.6297C67.8904 50.7963 67.7066 50.9456 67.5402 51.1122C67.8048 50.6127 67.9074 49.8952 67.7878 49.1435C67.5572 47.8112 66.6561 46.8248 65.7721 46.9571C64.8837 47.1067 64.3542 48.328 64.5678 49.6776C64.8027 51.0442 65.6865 52.0303 66.5876 51.881C66.6389 51.864 66.6859 51.847 66.7372 51.8297C66.3059 52.2482 65.9044 52.6155 65.4859 52.9144C64.2688 52.3463 63.3678 50.6467 63.3678 48.6439C63.368 46.1586 64.7173 44.1728 66.4042 44.1728ZM57.0305 76.4834C58.7643 73.7505 59.8831 67.7759 61.6169 65.7901C63.368 63.8086 64.7173 59.5851 64.1025 57.719C64.1025 57.719 67.8391 62.1901 70.44 61.4556C73.045 60.7039 78.8999 56.3524 79.7667 57.0998C80.6338 57.8513 88.09 74.25 88.8415 79.4729C89.5933 84.6914 88.342 88.6802 88.342 88.6802C88.342 88.6802 85.4894 87.9285 85.1219 89.6623C84.7547 91.4132 84.7547 97.755 84.7547 97.755C84.7547 97.755 80.8984 103.093 74.9281 103.977C68.9579 104.844 65.9684 104.212 65.9684 104.212L62.616 100.373C62.616 100.373 65.2212 99.9884 64.8537 97.3705C64.4865 94.7699 56.8934 91.1653 55.5268 87.9282C54.1607 84.6912 55.2753 79.2207 57.0305 76.4834ZM42.2673 96.0679C42.5663 94.7869 46.4352 94.7869 47.9214 93.8858C49.4076 92.9847 49.7063 90.3968 50.9066 89.7136C52.0893 89.0132 54.276 91.4988 55.177 92.8991C56.0611 94.2657 59.4478 100.24 60.8314 101.726C62.232 103.225 63.5176 105.211 63.1161 106.996C62.7361 108.781 60.6307 110.084 60.6307 110.084C58.7476 110.664 53.4948 108.397 51.1077 107.397C48.7207 106.394 42.6478 106.095 41.8663 105.211C41.0635 104.31 42.2506 102.324 42.5665 100.441C42.8482 98.5362 41.9643 97.3532 42.2673 96.0679Z" fill="#E08497"/>
<defs>
<filter id="filter0_d_222_11" x="0" y="0" width="146" height="146" filterUnits="userSpaceOnUse" color-interpolation-filters="sRGB">
<feFlood flood-opacity="0" result="BackgroundImageFix"/>
<feColorMatrix in="SourceAlpha" type="matrix" values="0 0 0 0 0 0 0 0 0 0 0 0 0 0 0 0 0 0 127 0" result="hardAlpha"/>
<feOffset/>
<feGaussianBlur stdDeviation="4"/>
<feComposite in2="hardAlpha" operator="out"/>
<feColorMatrix type="matrix" values="0 0 0 0 0.878431 0 0 0 0 0.517647 0 0 0 0 0.592157 0 0 0 0.15 0"/>
<feBlend mode="normal" in2="BackgroundImageFix" result="effect1_dropShadow_222_11"/>
<feBlend mode="normal" in="SourceGraphic" in2="effect1_dropShadow_222_11" result="shape"/>
</filter>
</defs>
</svg>
