<svg width="130" height="130" viewBox="0 0 130 130" fill="none" xmlns="http://www.w3.org/2000/svg">
<rect x="0.5" y="0.5" width="129" height="129" rx="4.5" fill="#EFC0C9" stroke="#F4AFBC"/>
<path d="M38.8197 100.696C43.0389 101.2 47.7795 103.933 51.7467 104.416C55.7353 104.919 56.9695 101.699 56.9695 101.699C56.9695 101.699 61.4579 100.696 66.1766 100.58C70.8999 100.448 75.3711 101.563 75.3711 101.563C75.3711 101.563 76.2381 103.549 77.8566 104.416C79.4752 105.299 82.9599 105.419 85.1933 103.066C87.431 100.696 93.4013 97.7106 96.7536 95.8444C100.127 93.9739 99.5082 91.1214 97.3901 90.2543C95.272 89.3875 93.5381 88.0209 93.6705 85.3987C93.7858 82.7981 91.8 81.0642 91.8 81.0642C91.8 81.0642 93.5382 75.3418 91.9196 70.6015C90.3011 65.8828 84.9629 58.294 80.8591 52.5886C76.7552 46.8662 80.2396 40.2597 76.5032 31.8168C72.7664 23.3611 63.0767 23.861 57.8539 27.465C52.631 31.0693 54.2323 40.0075 54.4842 44.2482C54.7361 48.4674 54.5995 51.4866 54.117 52.5715C53.6344 53.6733 50.265 57.6748 48.0273 61.0272C45.7939 64.3966 44.1751 71.3533 42.5396 74.2231C40.9381 77.0759 42.057 79.6765 42.057 79.6765C42.057 79.6765 40.9383 80.0608 40.0543 81.9315C39.1872 83.7807 37.4534 84.6645 34.3316 85.2669C31.2311 85.9031 31.2311 87.9018 31.9786 90.1395C32.7301 92.3729 31.9786 93.6242 31.1115 96.477C30.2447 99.3294 34.5835 100.196 38.8197 100.696ZM82.678 87.6834C84.8943 88.6528 88.0801 87.3032 89.0495 86.3338C90.0149 85.3687 90.698 83.9338 90.698 83.9338C90.698 83.9338 91.6674 84.4164 91.5691 85.9493C91.4665 87.5038 92.2353 89.7202 93.6872 90.489C95.1392 91.2534 97.3555 92.3209 96.2068 93.3885C95.0366 94.4562 88.5627 97.0612 86.6282 99.0939C84.7107 101.114 82.1911 102.767 80.6579 102.28C79.1079 101.797 77.754 99.6791 78.4204 96.5786C79.1079 93.4911 79.6888 90.1045 79.5905 88.17C79.4881 86.2355 79.1079 83.6306 79.5905 83.2461C80.073 82.8659 80.8418 83.0495 80.8418 83.0495C80.8418 83.0495 80.457 86.7186 82.678 87.6834ZM68.295 35.4211C70.4301 35.4211 72.1512 37.5392 72.1512 40.1441C72.1512 41.9933 71.2842 43.5948 70.0159 44.3635C69.6956 44.2312 69.3624 44.0816 68.9952 43.9277C69.7639 43.5478 70.2975 42.5784 70.2975 41.4594C70.2975 39.9948 69.3967 38.7905 68.2648 38.7905C67.1631 38.7905 66.2447 39.9945 66.2447 41.4594C66.2447 41.9935 66.3773 42.5271 66.5949 42.9456C65.9288 42.6764 65.3266 42.4461 64.8441 42.2625C64.5921 41.626 64.4426 40.9086 64.4426 40.1444C64.4428 37.5394 66.1594 35.4211 68.295 35.4211ZM63.0079 43.5608C64.0586 43.7444 66.9452 44.9957 68.0131 45.3799C69.0808 45.7472 70.2635 46.4303 70.1482 47.1138C70.0159 47.8183 69.465 47.8183 68.0131 48.7023C66.5782 49.5694 63.4437 51.5039 62.44 51.6362C61.4406 51.7685 60.8728 51.2047 59.8048 50.5172C58.7372 49.8168 56.7346 48.1812 57.2382 47.3144C57.2382 47.3144 58.8055 46.1144 59.4889 45.4995C60.1723 44.8631 61.9402 43.3642 63.0079 43.5608ZM58.4042 36.1728C60.0867 36.1728 61.4577 38.1756 61.4577 40.6439C61.4577 41.0924 61.4064 41.5107 61.3253 41.9293C60.9068 42.0616 60.4885 42.2795 60.0867 42.6297C59.8904 42.7963 59.7066 42.9456 59.5402 43.1122C59.8048 42.6127 59.9074 41.8952 59.7878 41.1435C59.5572 39.8112 58.6561 38.8248 57.7721 38.9571C56.8837 39.1067 56.3542 40.328 56.5678 41.6776C56.8027 43.0442 57.6865 44.0303 58.5876 43.881C58.6389 43.864 58.6859 43.847 58.7372 43.8297C58.3059 44.2482 57.9044 44.6155 57.4859 44.9144C56.2688 44.3463 55.3678 42.6467 55.3678 40.6439C55.368 38.1586 56.7173 36.1728 58.4042 36.1728ZM49.0305 68.4834C50.7643 65.7505 51.8831 59.7759 53.6169 57.7901C55.368 55.8086 56.7173 51.5851 56.1025 49.719C56.1025 49.719 59.8391 54.1901 62.44 53.4556C65.045 52.7039 70.8999 48.3524 71.7667 49.0998C72.6338 49.8513 80.09 66.25 80.8415 71.4729C81.5933 76.6914 80.342 80.6802 80.342 80.6802C80.342 80.6802 77.4894 79.9285 77.1219 81.6623C76.7547 83.4132 76.7547 89.755 76.7547 89.755C76.7547 89.755 72.8984 95.0932 66.9281 95.977C60.9579 96.844 57.9684 96.2119 57.9684 96.2119L54.616 92.3727C54.616 92.3727 57.2212 91.9884 56.8537 89.3705C56.4865 86.7699 48.8934 83.1653 47.5268 79.9282C46.1607 76.6912 47.2753 71.2207 49.0305 68.4834ZM34.2673 88.0679C34.5663 86.7869 38.4352 86.7869 39.9214 85.8858C41.4076 84.9847 41.7063 82.3968 42.9066 81.7136C44.0893 81.0132 46.276 83.4988 47.177 84.8991C48.0611 86.2657 51.4478 92.2403 52.8314 93.7263C54.232 95.2252 55.5176 97.211 55.1161 98.9961C54.7361 100.781 52.6307 102.084 52.6307 102.084C50.7476 102.664 45.4948 100.397 43.1077 99.3974C40.7207 98.394 34.6478 98.0948 33.8663 97.211C33.0635 96.3099 34.2506 94.3242 34.5665 92.4407C34.8482 90.5362 33.9643 89.3532 34.2673 88.0679Z" fill="#E08497"/>
</svg>
