<svg width="144" height="144" viewBox="0 0 144 144" fill="none" xmlns="http://www.w3.org/2000/svg">
<g filter="url(#filter0_d_160_393)">
<rect x="8.5" y="8.5" width="127" height="127" rx="3.5" fill="#EFC0C9" stroke="#F4AFBC"/>
<path fill-rule="evenodd" clip-rule="evenodd" d="M86.3999 46.3429C85.9427 46.3429 85.5999 46.4001 85.3142 46.4572V46.5144H85.3713C85.5999 46.9144 85.9427 47.2572 86.2285 47.6001C86.457 48.0001 86.6285 48.4572 86.857 48.8572L86.9142 48.8001C87.3142 48.5144 87.4856 48.1144 87.4856 47.4858C87.3142 47.3144 87.3142 47.0858 87.1427 46.9144C86.9713 46.6858 86.6285 46.5715 86.3999 46.3429Z" fill="#E08497"/>
<path d="M47.0857 99.3142H43.3714C43.2571 93.0857 42.8571 87.1999 42.2857 81.6571H42.2286L36.5714 99.3142H33.7714L28.1714 81.6571H28.1143C27.7143 86.9714 27.4286 92.7999 27.3143 99.3142H24C24.2286 91.4285 24.7429 84.0571 25.6571 77.1999H30.2286L35.6 93.4857H35.6571L41.0286 77.1999H45.4286C46.3429 85.2571 46.9143 92.6285 47.0857 99.3142Z" fill="#E08497"/>
<path d="M63.1987 82.9713C61.7129 91.1428 59.7129 97.0856 57.2558 100.8C55.3129 103.657 53.1987 105.086 50.9129 105.086C50.2844 105.086 49.5415 104.914 48.6272 104.514V102.514C49.0844 102.571 49.5987 102.628 50.1701 102.628C51.2558 102.628 52.1129 102.343 52.7415 101.714C53.5415 100.971 53.9415 100.171 53.9415 99.3142C53.9415 98.6856 53.6558 97.4285 53.0272 95.5428L48.9701 82.9713H52.6272L55.5415 92.3999C56.1701 94.5713 56.4558 96.0571 56.3415 96.9142C57.9415 92.6285 59.0272 87.9999 59.7129 82.9713H63.1987Z" fill="#E08497"/>
<path d="M112.515 99.3142H101.943V77.1999H105.486V96.5714H112.515V99.3142Z" fill="#E08497"/>
<path fill-rule="evenodd" clip-rule="evenodd" d="M99.1995 99.8285L95.1424 97.8285C95.4853 97.5428 95.8281 97.1999 96.171 96.8571C97.8853 94.7999 98.7424 91.8285 98.7424 87.8285C98.7424 80.5142 95.8853 76.8571 90.1138 76.8571C87.3138 76.8571 85.0853 77.7714 83.5424 79.6571C81.8281 81.7142 80.971 84.6856 80.971 88.6285C80.971 92.5142 81.7138 95.3714 83.2567 97.1999C84.6281 98.8571 86.7424 99.6571 89.5995 99.6571C90.6281 99.6571 91.5995 99.5428 92.5138 99.2571L97.8281 102.343L99.1995 99.8285ZM86.0567 94.8571C85.1424 93.4285 84.6853 91.0856 84.6853 87.8856C84.6853 82.2856 86.3995 79.5428 89.771 79.5428C91.5424 79.5428 92.8567 80.2285 93.6567 81.5428C94.571 82.9714 95.0281 85.2571 95.0281 88.4571C95.0281 94.0571 93.3138 96.9142 89.9424 96.9142C88.171 96.8571 86.8567 96.2285 86.0567 94.8571Z" fill="#E08497"/>
<path d="M79.4284 93.1999C79.4284 95.0856 78.7427 96.6285 77.3713 97.8285C75.9998 99.0285 74.1713 99.6571 71.8284 99.6571C69.657 99.6571 67.5427 98.9714 65.5427 97.5999L66.5141 95.7142C68.2855 96.5714 69.8284 97.0285 71.257 97.0285C72.5713 97.0285 73.657 96.7428 74.3998 96.1714C75.1427 95.5999 75.5998 94.7428 75.5998 93.7142C75.5998 92.3999 74.6856 91.2571 73.0284 90.3428C71.4856 89.4856 68.3998 87.7142 68.3998 87.7142C66.7427 86.5142 65.8856 85.1999 65.8856 83.0285C65.8856 81.2571 66.5141 79.7714 67.7713 78.6856C69.0284 77.5999 70.6284 77.0285 72.6284 77.0285C74.6856 77.0285 76.5713 77.5999 78.2284 78.6856L77.3713 80.5714C75.9427 79.9428 74.5141 79.6571 73.0856 79.6571C71.9427 79.6571 71.0856 79.9428 70.457 80.4571C69.8284 81.0285 69.4856 81.7142 69.4856 82.5714C69.4856 83.8856 70.3998 85.0285 72.1713 85.9999C73.7713 86.8571 76.9141 88.6856 76.9141 88.6856C78.5141 89.7142 79.4284 91.0285 79.4284 93.1999Z" fill="#E08497"/>
<path fill-rule="evenodd" clip-rule="evenodd" d="M116.913 69.7713C114.799 69.7142 113.142 69.9428 111.713 70.5142C111.313 70.6856 110.684 70.6856 110.627 71.1999C110.856 71.4285 110.856 71.7713 111.084 72.0571C111.427 72.5714 111.942 73.3142 112.456 73.7142C113.027 74.1142 113.599 74.5714 114.17 74.9713C115.199 75.5999 116.399 75.9999 117.427 76.6285C117.999 77.0285 118.627 77.4856 119.199 77.8856C119.484 78.1142 119.656 78.4571 120.056 78.5713V78.5142C119.884 78.2856 119.827 77.9428 119.656 77.6571C119.37 77.3713 119.142 77.1428 118.856 76.8571C118.056 75.8285 117.142 74.9142 116.056 74.1713C115.199 73.5999 113.313 72.7999 112.97 71.7713C112.97 71.7713 112.97 71.7713 112.913 71.7142C113.484 71.6571 114.17 71.4285 114.742 71.2571C115.656 71.0285 116.456 71.0856 117.427 70.8571C117.884 70.7428 118.284 70.6285 118.742 70.4571V70.2285C118.284 69.7713 117.884 69.0856 117.427 68.6285C116.056 67.4285 114.57 66.2856 113.027 65.3142C112.17 64.7999 111.142 64.4571 110.227 63.9999C109.884 63.8285 109.37 63.7713 109.199 63.4856C108.742 62.9142 108.456 62.1142 108.113 61.4285C107.313 59.9428 106.57 58.3428 105.942 56.7999C105.484 55.7713 105.142 54.7428 104.57 53.7713C101.827 49.1999 98.7987 46.4571 94.2272 43.7713C93.2558 43.1999 92.0558 42.9713 90.7987 42.6856C90.1129 42.6856 89.4844 42.6285 88.7987 42.5713C88.3415 42.3999 87.9415 41.8856 87.5415 41.6571C85.9987 40.6856 82.1129 38.6285 80.9701 41.3713C80.2272 43.0856 82.0558 44.7999 82.6272 45.7142C83.0844 46.3428 83.6558 47.0285 83.9987 47.7142C84.1701 48.1713 84.2272 48.6285 84.4558 49.1428C84.8558 50.3428 85.2558 51.6571 85.8272 52.7428C86.1129 53.3142 86.4558 53.8856 86.7987 54.3999C87.0272 54.6856 87.3701 54.7999 87.4844 55.3142C87.0844 55.8285 87.0844 56.6285 86.8558 57.3142C85.8844 60.3428 86.2844 64.0571 87.6558 66.2856C88.0558 66.9713 89.0844 68.3999 90.4558 67.8856C91.6558 67.4285 91.3701 65.8856 91.7129 64.5713C91.7701 64.2285 91.7129 64.0571 91.8844 63.8285V63.8856C92.2844 64.6285 92.6272 65.3713 92.9701 66.1142C93.8272 67.4285 95.2558 68.7999 96.4558 69.7142C97.0844 70.1713 97.5987 71.0285 98.3987 71.3142V71.0285H98.3415C98.1701 70.7999 97.9415 70.6856 97.7129 70.5142C97.2558 70.0571 96.6844 69.4285 96.3415 68.9142C95.1987 67.4285 94.2272 65.7713 93.3701 64.0571C92.9129 63.1999 92.5701 62.3428 92.2272 61.4856C92.0558 61.1428 92.0558 60.6856 91.8272 60.5142C91.4272 61.0856 90.8558 61.5999 90.5701 62.3428C90.0558 63.4856 89.9987 64.9142 89.8272 66.3999C89.7129 66.3999 89.7701 66.3999 89.7129 66.4571C88.8558 66.2285 88.5701 65.3713 88.2272 64.6285C87.4272 62.7428 87.3129 59.6571 87.9987 57.4856C88.1701 56.9142 88.9701 55.1428 88.6844 54.6285C88.5129 54.1142 87.9987 53.8285 87.7129 53.4285C87.3701 52.9142 86.9701 52.2856 86.7415 51.7142C86.1129 50.2285 85.7701 48.5713 85.0844 47.0856C84.7415 46.3999 84.2272 45.6571 83.7701 45.0285C83.2558 44.2856 82.6844 43.7713 82.2844 42.9713C82.1701 42.6856 81.9415 42.1713 82.1701 41.8856C82.2272 41.6571 82.3415 41.5999 82.5701 41.5428C82.9129 41.2571 83.8844 41.5999 84.2272 41.7713C85.1987 42.1713 86.0558 42.5713 86.8558 43.0856C87.2558 43.3713 87.6558 43.8856 88.1129 43.9999H88.6844C89.5415 44.1713 90.5129 44.0571 91.3129 44.2856C92.7415 44.7428 93.9987 45.4285 95.1415 46.1142C98.6272 48.3428 101.542 51.4856 103.484 55.2571C103.827 55.8856 103.942 56.4571 104.227 57.0856C104.799 58.3999 105.484 59.7142 106.056 61.0285C106.627 62.2856 107.142 63.5428 107.942 64.6285C108.342 65.1999 109.942 65.4856 110.684 65.7713C111.199 65.9999 112.056 66.2285 112.513 66.5142C113.427 67.0856 114.342 67.7142 115.199 68.3428C115.542 68.5713 116.856 69.1999 116.913 69.7713Z" fill="#E08497"/>
</g>
<defs>
<filter id="filter0_d_160_393" x="0" y="0" width="144" height="144" filterUnits="userSpaceOnUse" color-interpolation-filters="sRGB">
<feFlood flood-opacity="0" result="BackgroundImageFix"/>
<feColorMatrix in="SourceAlpha" type="matrix" values="0 0 0 0 0 0 0 0 0 0 0 0 0 0 0 0 0 0 127 0" result="hardAlpha"/>
<feOffset/>
<feGaussianBlur stdDeviation="4"/>
<feComposite in2="hardAlpha" operator="out"/>
<feColorMatrix type="matrix" values="0 0 0 0 0.878431 0 0 0 0 0.517647 0 0 0 0 0.592157 0 0 0 0.15 0"/>
<feBlend mode="normal" in2="BackgroundImageFix" result="effect1_dropShadow_160_393"/>
<feBlend mode="normal" in="SourceGraphic" in2="effect1_dropShadow_160_393" result="shape"/>
</filter>
</defs>
</svg>
