<svg width="40" height="40" viewBox="0 0 40 40" fill="none" xmlns="http://www.w3.org/2000/svg">
<g clip-path="url(#clip0_54_1353)">
<path d="M20 0.83374C8.95 0.83374 0 9.63374 0 20.4871C0 29.1721 5.73 36.5371 13.675 39.1337C14.675 39.3187 15.0417 38.7104 15.0417 38.1887C15.0417 37.7221 15.025 36.4854 15.0167 34.8471C9.45333 36.0321 8.28 32.2104 8.28 32.2104C7.37 29.9421 6.055 29.3354 6.055 29.3354C4.24333 28.1171 6.195 28.1421 6.195 28.1421C8.20333 28.2787 9.25833 30.1671 9.25833 30.1671C11.0417 33.1721 13.94 32.3037 15.0833 31.8021C15.2633 30.5304 15.7783 29.6654 16.35 29.1737C11.9083 28.6821 7.24 26.9921 7.24 19.4621C7.24 17.3171 8.015 15.5637 9.29833 14.1887C9.07333 13.6921 8.39833 11.6937 9.47333 8.98707C9.47333 8.98707 11.1483 8.46041 14.9733 11.0021C16.5733 10.5654 18.2733 10.3487 19.9733 10.3387C21.6733 10.3487 23.3733 10.5654 24.9733 11.0021C28.7733 8.46041 30.4483 8.98707 30.4483 8.98707C31.5233 11.6937 30.8483 13.6921 30.6483 14.1887C31.9233 15.5637 32.6983 17.3171 32.6983 19.4621C32.6983 27.0121 28.0233 28.6737 23.5733 29.1571C24.2733 29.7471 24.9233 30.9521 24.9233 32.7937C24.9233 35.4237 24.8983 37.5371 24.8983 38.1754C24.8983 38.6904 25.2483 39.3054 26.2733 39.1087C34.275 36.5287 40 29.1587 40 20.4871C40 9.63374 31.045 0.83374 20 0.83374Z" fill="#72313F"/>
</g>
<defs>
<clipPath id="clip0_54_1353">
<rect width="40" height="40" fill="white"/>
</clipPath>
</defs>
</svg>
