<svg width="366" height="802" viewBox="0 0 366 802" fill="none" xmlns="http://www.w3.org/2000/svg">
<g opacity="0.3">
<path d="M-9.62837e-06 581.729C-1.04508e-05 562.913 1.73665 545.395 5.20996 529.175C8.46619 512.954 13.4591 499.005 20.1886 487.326C26.7011 475.648 34.9502 466.673 44.9359 460.401C54.7046 454.129 66.1014 451.534 79.1263 452.615C99.532 454.345 116.03 464.51 128.621 483.109C140.995 501.708 149.027 527.445 152.717 560.318L162.486 560.318C163.137 551.667 164.331 542.043 166.068 531.446C167.587 520.632 169.975 509.819 173.231 499.005C176.27 487.975 180.395 477.486 185.605 467.538C190.815 457.373 197.327 448.506 205.142 440.936C212.957 433.367 222.292 427.528 233.146 423.419C244 419.309 256.591 417.904 270.918 419.201C287.416 420.499 301.635 425.906 313.575 435.422C325.514 444.721 335.391 457.049 343.206 472.404C351.021 487.543 356.774 505.169 360.464 525.282C364.155 545.395 366 566.914 366 589.839L366 802C338.648 801.135 309.342 800.594 278.082 800.378C246.822 799.945 215.128 799.729 183 799.729C150.872 799.729 119.178 799.945 87.9182 800.378C56.6584 800.594 27.3523 801.135 0 802L-9.62837e-06 581.729ZM233.472 621.306C233.472 614.602 230.649 609.303 225.005 605.41C219.361 601.301 212.849 599.246 205.468 599.246C201.343 599.246 197.436 599.787 193.746 600.868C190.055 601.95 186.799 603.572 183.977 605.735C181.155 607.681 178.984 610.06 177.464 612.871C175.728 615.683 174.859 618.819 174.859 622.279L174.859 644.339L233.472 644.339L233.472 621.306ZM150.438 620.333C150.438 611.682 148.158 604.869 143.6 599.895C139.041 594.705 132.963 592.109 125.365 592.109C117.767 592.109 112.231 594.705 108.758 599.895C105.285 604.869 103.548 611.574 103.548 620.008L103.548 644.339L150.438 644.339L150.438 620.333Z" fill="url(#paint0_linear_54_1336)"/>
<path d="M366 382.87C244 379.194 122 379.194 -1.83207e-05 382.87L-2.5893e-05 209.638C14.7616 205.529 29.1975 200.446 43.3078 194.391C57.4181 188.119 70.5516 181.414 82.7082 174.278C94.8648 167.141 105.719 159.787 115.27 152.218C124.605 144.648 131.986 137.403 137.413 130.483L-3.06434e-05 100.962L-3.81163e-05 -70.0001C122 -66.1072 244 -66.1072 366 -70.0001L366 84.7416L81.08 84.7416L81.08 92.2028C116.899 99.556 150.329 106.369 181.372 112.64C194.614 115.236 208.073 117.939 221.749 120.751C235.208 123.562 248.016 126.265 260.173 128.861C272.112 131.24 282.966 133.51 292.735 135.673C302.286 137.62 309.884 139.134 315.528 140.215C314.443 151.028 311.295 162.815 306.085 175.575C300.658 188.119 293.278 200.879 283.943 213.855C274.391 226.831 262.778 239.591 249.101 252.135C235.425 264.679 219.47 276.249 201.235 286.846C182.783 297.444 162.16 306.743 139.367 314.745C116.573 322.531 91.2829 328.262 63.4964 331.939L63.4964 342.644C93.8879 341.13 124.388 336.697 154.996 329.343C185.388 321.774 214.043 311.609 240.961 298.849C267.879 285.873 292.192 270.302 313.9 252.135C335.609 233.968 352.975 213.314 366 190.173L366 382.87Z" fill="url(#paint1_linear_54_1336)"/>
</g>
<defs>
<linearGradient id="paint0_linear_54_1336" x1="366" y1="-70" x2="366" y2="802" gradientUnits="userSpaceOnUse">
<stop stop-color="white"/>
<stop offset="1" stop-color="#F9E6EA"/>
</linearGradient>
<linearGradient id="paint1_linear_54_1336" x1="366" y1="-70" x2="366" y2="802" gradientUnits="userSpaceOnUse">
<stop stop-color="white"/>
<stop offset="1" stop-color="#F9E6EA"/>
</linearGradient>
</defs>
</svg>
