<svg width="24" height="24" viewBox="0 0 24 24" fill="none" xmlns="http://www.w3.org/2000/svg">
<g clip-path="url(#clip0_54_1449)">
<path d="M12 0.500183C5.37 0.500183 0 5.78018 0 12.2922C0 17.5032 3.438 21.9222 8.205 23.4802C8.805 23.5912 9.025 23.2262 9.025 22.9132C9.025 22.6332 9.015 21.8912 9.01 20.9082C5.672 21.6192 4.968 19.3262 4.968 19.3262C4.422 17.9652 3.633 17.6012 3.633 17.6012C2.546 16.8702 3.717 16.8852 3.717 16.8852C4.922 16.9672 5.555 18.1002 5.555 18.1002C6.625 19.9032 8.364 19.3822 9.05 19.0812C9.158 18.3182 9.467 17.7992 9.81 17.5042C7.145 17.2092 4.344 16.1952 4.344 11.6772C4.344 10.3902 4.809 9.33818 5.579 8.51318C5.444 8.21518 5.039 7.01618 5.684 5.39218C5.684 5.39218 6.689 5.07618 8.984 6.60118C9.944 6.33918 10.964 6.20918 11.984 6.20318C13.004 6.20918 14.024 6.33918 14.984 6.60118C17.264 5.07618 18.269 5.39218 18.269 5.39218C18.914 7.01618 18.509 8.21518 18.389 8.51318C19.154 9.33818 19.619 10.3902 19.619 11.6772C19.619 16.2072 16.814 17.2042 14.144 17.4942C14.564 17.8482 14.954 18.5712 14.954 19.6762C14.954 21.2542 14.939 22.5222 14.939 22.9052C14.939 23.2142 15.149 23.5832 15.764 23.4652C20.565 21.9172 24 17.4952 24 12.2922C24 5.78018 18.627 0.500183 12 0.500183Z" fill="#72313F"/>
</g>
<defs>
<clipPath id="clip0_54_1449">
<rect width="24" height="24" fill="white"/>
</clipPath>
</defs>
</svg>
