<svg width="40" height="40" viewBox="0 0 40 40" fill="none" xmlns="http://www.w3.org/2000/svg">
<path d="M8.95429 40H0.661429V13.2943H8.95429V40ZM4.80286 9.65143C2.15143 9.65143 0 7.45429 0 4.80286C0 3.52906 0.506014 2.30743 1.40672 1.40672C2.30743 0.506014 3.52906 0 4.80286 0C6.07665 0 7.29828 0.506014 8.19899 1.40672C9.0997 2.30743 9.60571 3.52906 9.60571 4.80286C9.60571 7.45429 7.45429 9.65143 4.80286 9.65143ZM39.9914 40H31.7171V27C31.7171 23.9014 31.6543 19.9286 27.4057 19.9286C23.0943 19.9286 22.4329 23.2943 22.4329 26.7771V40H14.1486V13.2943H22.1014V16.9371H22.2171C23.3243 14.8386 26.0286 12.6243 30.0629 12.6243C38.4557 12.6243 39.9986 18.1514 39.9986 25.33V40H39.9914Z" fill="#72313F"/>
</svg>
