<svg width="49" height="21" viewBox="0 0 49 21" fill="none" xmlns="http://www.w3.org/2000/svg">
<path d="M12.572 0.767999C13.616 0.767999 14.588 0.863999 15.488 1.056C16.388 1.236 17.162 1.512 17.81 1.884C18.458 2.244 18.956 2.7 19.304 3.252C19.652 3.792 19.796 4.422 19.736 5.142C19.64 6.27 19.076 7.182 18.044 7.878C17.012 8.562 15.584 9.006 13.76 9.21V9.75C14.24 9.786 14.774 9.852 15.362 9.948C15.962 10.032 16.562 10.164 17.162 10.344C17.774 10.512 18.356 10.74 18.908 11.028C19.472 11.316 19.964 11.676 20.384 12.108C20.804 12.54 21.128 13.056 21.356 13.656C21.584 14.256 21.662 14.952 21.59 15.744C21.518 16.656 21.218 17.442 20.69 18.102C20.174 18.762 19.49 19.308 18.638 19.74C17.798 20.172 16.82 20.49 15.704 20.694C14.588 20.898 13.394 21 12.122 21H0.35C0.398 19.488 0.428 17.868 0.44 16.14C0.464 14.412 0.476 12.66 0.476 10.884C0.476 9.108 0.464 7.356 0.44 5.628C0.428 3.9 0.398 2.28 0.35 0.767999H12.572ZM10.376 13.674C10.748 13.674 11.042 13.518 11.258 13.206C11.486 12.894 11.6 12.534 11.6 12.126C11.6 11.898 11.57 11.682 11.51 11.478C11.45 11.274 11.36 11.094 11.24 10.938C11.132 10.782 11 10.662 10.844 10.578C10.688 10.482 10.514 10.434 10.322 10.434H9.098V13.674H10.376ZM10.43 9.084C10.91 9.084 11.288 8.958 11.564 8.706C11.852 8.454 11.996 8.118 11.996 7.698C11.996 7.278 11.852 6.972 11.564 6.78C11.288 6.588 10.916 6.492 10.448 6.492H9.098V9.084H10.43ZM23.6059 21C23.8099 14.256 23.8099 7.512 23.6059 0.767999H33.2179C33.4459 1.584 33.7279 2.382 34.0639 3.162C34.4119 3.942 34.7839 4.668 35.1799 5.34C35.5759 6.012 35.9839 6.612 36.4039 7.14C36.8239 7.656 37.2259 8.064 37.6099 8.364L39.2479 0.767999H48.7339C48.5179 7.512 48.5179 14.256 48.7339 21H40.1479V5.25H39.7339C39.3259 7.23 38.9479 9.078 38.5999 10.794C38.4559 11.526 38.3059 12.27 38.1499 13.026C37.9939 13.77 37.8439 14.478 37.6999 15.15C37.5679 15.81 37.4419 16.41 37.3219 16.95C37.2139 17.478 37.1299 17.898 37.0699 18.21C36.4699 18.15 35.8159 17.976 35.1079 17.688C34.4119 17.388 33.7039 16.98 32.9839 16.464C32.2639 15.936 31.5559 15.294 30.8599 14.538C30.1639 13.782 29.5219 12.9 28.9339 11.892C28.3459 10.872 27.8299 9.732 27.3859 8.472C26.9539 7.212 26.6359 5.814 26.4319 4.278H25.8379C25.9219 5.958 26.1679 7.644 26.5759 9.336C26.9959 11.016 27.5599 12.6 28.2679 14.088C28.9879 15.576 29.8519 16.92 30.8599 18.12C31.8679 19.32 33.0139 20.28 34.2979 21H23.6059Z" fill="#72313F"/>
</svg>
