<svg width="23" height="18" viewBox="0 0 23 18" fill="none" xmlns="http://www.w3.org/2000/svg">
<path d="M11.5052 12.8942C12.5865 12.8942 13.5074 12.5136 14.2678 11.7525C15.0283 10.9913 15.4085 10.0721 15.4085 8.9948C15.4085 7.9175 15.0266 7 14.2626 6.24232C13.4986 5.48463 12.576 5.10579 11.4948 5.10579C10.4135 5.10579 9.49265 5.48636 8.73218 6.24752C7.9717 7.00869 7.59147 7.92791 7.59147 9.0052C7.59147 10.0825 7.97344 11 8.73739 11.7577C9.50136 12.5154 10.424 12.8942 11.5052 12.8942ZM11.4924 11.7712C10.7177 11.7712 10.0617 11.501 9.52448 10.9607C8.98726 10.4204 8.71865 9.76429 8.71865 8.99242C8.71865 8.22056 8.98979 7.56699 9.53208 7.03172C10.0744 6.49647 10.7329 6.22884 11.5076 6.22884C12.2823 6.22884 12.9383 6.49899 13.4755 7.03929C14.0127 7.57961 14.2813 8.23571 14.2813 9.00758C14.2813 9.77944 14.0102 10.433 13.4679 10.9683C12.9256 11.5035 12.2671 11.7712 11.4924 11.7712ZM11.5014 16C9.19972 16 7.1102 15.358 5.23282 14.074C3.35542 12.7901 1.94448 11.0987 1 9C1.94448 6.90129 3.35496 5.20995 5.23144 3.92596C7.1079 2.64199 9.19696 2 11.4986 2C13.8003 2 15.8898 2.64199 17.7672 3.92596C19.6446 5.20995 21.0555 6.90129 22 9C21.0555 11.0987 19.645 12.7901 17.7686 14.074C15.8921 15.358 13.803 16 11.5014 16ZM11.4958 14.8654C13.4905 14.8654 15.3207 14.334 16.9865 13.2712C18.6522 12.2083 19.9219 10.7846 20.7956 9C19.9219 7.21538 18.6536 5.79166 16.9907 4.72883C15.3278 3.66601 13.499 3.1346 11.5042 3.1346C9.50949 3.1346 7.67926 3.66601 6.01353 4.72883C4.34783 5.79166 3.07297 7.21538 2.18896 9C3.07297 10.7846 4.34642 12.2083 6.00932 13.2712C7.67221 14.334 9.50103 14.8654 11.4958 14.8654Z" fill="#72313F" stroke="#72313F" stroke-width="0.3"/>
</svg>
